<?xml version="1.0" standalone="no"?>
<!DOCTYPE svg PUBLIC "-//W3C//DTD SVG 20010904//EN"
 "http://www.w3.org/TR/2001/REC-SVG-20010904/DTD/svg10.dtd">
<svg version="1.0" xmlns="http://www.w3.org/2000/svg"
 width="1364.000000pt" height="298.000000pt" viewBox="0 0 1364.000000 298.000000"
 preserveAspectRatio="xMidYMid meet">

<g transform="translate(0.000000,298.000000) scale(0.100000,-0.100000)"
fill="#000000" stroke="none">
<path d="M77 2942 c-9 -2 -18 -7 -18 -10 -1 -4 -2 -645 -3 -1425 -1 -916 2
-1421 9 -1425 11 -7 6894 -9 6896 -2 1 3 2 107 3 233 l2 227 -136 0 -136 0 0
-95 1 -95 -3185 0 -3185 0 0 1162 0 1163 3175 1 c1746 1 3180 -2 3185 -5 6 -4
11 -47 10 -106 l0 -100 135 0 135 0 0 238 c0 152 -3 237 -10 238 -28 3 -6864
4 -6878 1z"/>
<path d="M2088 2253 c-2 -5 -4 -271 -3 -593 l1 -585 24 -45 c27 -53 59 -82
118 -110 39 -19 60 -20 250 -18 l207 3 3 88 3 87 -195 0 c-170 0 -196 2 -215
18 -21 17 -21 21 -19 332 l3 315 213 3 213 2 -3 88 -3 87 -212 3 -213 2 0 165
0 165 -84 0 c-47 0 -86 -3 -88 -7z"/>
<path d="M5005 2247 c-3 -7 -4 -274 -3 -593 l3 -579 24 -48 c14 -26 40 -59 58
-73 64 -49 102 -55 318 -52 l200 3 0 85 0 85 -203 5 c-165 4 -205 8 -212 20
-6 9 -9 143 -7 330 l2 315 210 5 210 5 0 85 0 85 -212 3 -213 2 -2 163 -3 162
-83 3 c-62 2 -84 -1 -87 -11z"/>
<path d="M8454 2246 c-3 -7 -4 -274 -2 -592 l3 -579 24 -45 c28 -53 60 -83
119 -110 39 -19 60 -20 250 -18 l207 3 3 88 3 87 -199 0 c-181 0 -200 2 -216
18 -15 17 -16 51 -14 333 l3 314 213 3 213 2 -3 88 -3 87 -212 3 -213 2 0 165
0 165 -85 0 c-63 0 -87 -4 -91 -14z"/>
<path d="M12530 1669 c0 -582 0 -593 21 -636 12 -24 38 -57 58 -74 62 -53 95
-59 319 -59 l202 0 0 90 0 90 -193 0 c-148 0 -198 3 -212 14 -18 13 -19 32
-20 322 0 170 4 315 8 322 7 9 62 12 214 12 l204 0 -3 88 -3 87 -210 5 -210 5
0 160 0 160 -87 3 -88 3 0 -592z"/>
<path d="M766 2160 c-59 -23 -99 -60 -126 -115 -18 -37 -20 -62 -20 -231 0
-184 1 -192 25 -240 14 -27 40 -60 56 -73 62 -49 75 -50 546 -51 l442 0 15
-22 c13 -18 16 -53 16 -170 0 -140 -1 -148 -22 -162 -19 -14 -79 -16 -450 -16
l-427 0 -15 22 c-9 12 -16 37 -16 55 l0 33 -85 0 -85 0 0 -47 c0 -27 5 -66 11
-88 14 -52 90 -126 145 -143 57 -17 899 -17 955 0 52 15 117 73 140 122 16 35
19 68 19 228 0 210 -9 247 -71 303 -71 63 -44 60 -540 65 -366 4 -459 8 -472
19 -14 11 -17 36 -17 160 0 109 4 152 14 166 13 17 36 18 450 19 322 0 439 -3
448 -12 6 -6 14 -31 17 -54 l6 -43 65 -1 c97 -1 100 1 100 55 0 108 -51 185
-146 221 -52 19 -76 20 -492 20 -406 -1 -440 -2 -486 -20z"/>
<path d="M7136 2160 c-60 -23 -102 -62 -127 -115 -16 -34 -19 -66 -19 -231 0
-184 1 -192 25 -240 14 -27 40 -60 56 -73 62 -49 75 -50 546 -51 l442 0 15
-22 c13 -18 16 -53 16 -170 0 -140 -1 -148 -22 -162 -19 -14 -79 -16 -443 -16
-475 0 -469 -1 -463 69 l3 36 -88 3 -87 3 0 -48 c0 -26 5 -66 11 -88 14 -52
90 -126 147 -142 57 -18 897 -18 953 -1 53 15 112 68 138 123 19 41 21 62 21
229 0 202 -5 227 -61 290 -63 72 -43 70 -557 76 -396 4 -464 7 -472 20 -16 25
-12 303 4 325 13 18 34 19 450 19 320 0 439 -3 448 -12 6 -6 14 -31 17 -54 l6
-43 80 0 80 0 3 45 c8 104 -49 194 -144 229 -52 20 -74 21 -492 21 -406 -1
-440 -2 -486 -20z"/>
<path d="M2983 1908 c-51 -24 -96 -68 -120 -117 -16 -33 -18 -72 -18 -461 l0
-425 85 0 85 0 3 410 c2 371 4 411 19 423 13 9 91 12 310 12 l293 0 0 90 0 90
-307 0 c-290 -1 -311 -2 -350 -22z"/>
<path d="M3774 1917 c-3 -8 -4 -47 -2 -88 l3 -74 418 -5 c495 -6 449 9 445
-145 l-3 -100 -430 -5 -430 -5 0 -215 0 -215 27 -46 c27 -45 77 -86 133 -108
21 -8 152 -11 455 -9 l425 3 -3 415 c-2 249 -7 432 -13 457 -14 54 -77 117
-137 137 -63 22 -880 24 -888 3z m684 -587 l183 0 -3 -122 -3 -123 -323 -3
c-211 -1 -330 1 -342 8 -18 10 -20 22 -20 124 0 62 3 116 8 121 4 4 77 5 162
1 85 -3 237 -6 338 -6z"/>
<path d="M5895 1911 c-22 -10 -55 -33 -73 -52 -68 -69 -67 -60 -69 -424 -2
-370 2 -398 62 -458 19 -19 55 -44 80 -56 43 -20 59 -21 373 -21 369 0 392 3
457 68 72 72 70 59 70 437 0 374 -1 384 -60 448 -69 75 -83 77 -463 76 -301 0
-341 -2 -377 -18z m703 -177 c22 -15 22 -16 22 -317 0 -173 -4 -308 -10 -317
-8 -13 -58 -15 -329 -18 -282 -2 -321 -1 -335 13 -14 14 -16 54 -16 320 0 263
2 306 16 319 23 24 618 24 652 0z"/>
<path d="M9360 1916 c-49 -15 -123 -92 -138 -142 -9 -30 -12 -159 -12 -458 l0
-417 86 3 87 3 1 408 c1 392 2 409 20 423 16 11 76 14 313 14 l294 0 -3 88 -3
87 -305 1 c-200 1 -317 -3 -340 -10z"/>
<path d="M10142 1493 l3 -438 33 -48 c36 -51 67 -75 122 -94 53 -19 671 -18
725 1 55 19 109 67 134 119 20 42 21 57 21 470 l0 427 -84 0 -84 0 -4 -411
c-3 -393 -4 -411 -22 -425 -27 -19 -623 -21 -648 -1 -14 10 -17 62 -24 425
l-7 412 -84 0 -84 0 3 -437z"/>
<path d="M11480 1913 c-60 -26 -98 -61 -124 -117 l-26 -55 0 -325 c0 -295 2
-328 19 -368 24 -56 67 -99 125 -127 45 -21 54 -21 474 -19 l427 3 1 75 c0 41
-1 81 -4 88 -3 9 -96 12 -417 12 -363 0 -416 2 -429 16 -14 13 -16 57 -16 324
0 296 1 310 19 320 13 6 167 10 431 10 l411 0 -3 88 -3 87 -425 2 c-360 1
-430 -1 -460 -14z"/>
</g>
</svg>
